<svg xmlns="http://www.w3.org/2000/svg" viewBox="0 0 1600 900" preserveAspectRatio="xMidYMid slice">
  <defs>
    <linearGradient id="sky" x1="0" y1="0" x2="0" y2="1">
      <stop offset="0%" stop-color="#9ec5d8"/>
      <stop offset="60%" stop-color="#cfe0e8"/>
      <stop offset="100%" stop-color="#e8efe9"/>
    </linearGradient>
    <linearGradient id="lake" x1="0" y1="0" x2="0" y2="1">
      <stop offset="0%" stop-color="#5d7e8a"/>
      <stop offset="100%" stop-color="#2e4750"/>
    </linearGradient>
    <linearGradient id="mtn1" x1="0" y1="0" x2="0" y2="1">
      <stop offset="0%" stop-color="#3e5a4a"/>
      <stop offset="100%" stop-color="#26392f"/>
    </linearGradient>
    <linearGradient id="mtn2" x1="0" y1="0" x2="0" y2="1">
      <stop offset="0%" stop-color="#5a7866"/>
      <stop offset="100%" stop-color="#3a5446"/>
    </linearGradient>
  </defs>
  <rect width="1600" height="900" fill="url(#sky)"/>
  <path d="M0 540 L180 380 L360 460 L520 350 L720 470 L900 360 L1080 470 L1260 380 L1440 470 L1600 420 L1600 600 L0 600 Z" fill="url(#mtn1)" opacity="0.85"/>
  <path d="M0 600 L220 480 L380 550 L560 460 L760 560 L960 470 L1140 560 L1320 490 L1480 560 L1600 520 L1600 700 L0 700 Z" fill="url(#mtn2)" opacity="0.95"/>
  <rect y="700" width="1600" height="200" fill="url(#lake)"/>
  <g opacity="0.18" fill="#ffffff">
    <rect x="0" y="720" width="1600" height="1"/>
    <rect x="0" y="760" width="1600" height="1"/>
    <rect x="0" y="810" width="1600" height="1"/>
    <rect x="0" y="870" width="1600" height="1"/>
  </g>
</svg>
